HIERARCHY
ROOT Hips
{
    OFFSET 13.452005386352539 79.48128128051758 -18.228958129882812
    CHANNELS 6 Xposition Yposition Zposition Zrotation Xrotation Yrotation
    JOINT RightUpLeg
    {
        OFFSET -13.452005386352539 0.0 0.0
        CHANNELS 3 Zrotation Xrotation Yrotation
        JOINT RightLeg
        {
            OFFSET 0.0 -33.90888977050781 0.0
            CHANNELS 3 Zrotation Xrotation Yrotation
            JOINT RightFoot
            {
                OFFSET 0.0 -45.572391510009766 0.0
                CHANNELS 3 Zrotation Xrotation Yrotation
                End Site
                {
                    OFFSET 0.0 0.0 18.228958129882812
                }
            }
        }
    }
    JOINT LeftUpLeg
    {
        OFFSET 13.452005386352539 0.0 0.0
        CHANNELS 3 Zrotation Xrotation Yrotation
        JOINT LeftLeg
        {
            OFFSET 0.0 -33.90888977050781 0.0
            CHANNELS 3 Zrotation Xrotation Yrotation
            JOINT LeftFoot
            {
                OFFSET 0.0 -45.572391510009766 0.0
                CHANNELS 3 Zrotation Xrotation Yrotation
                End Site
                {
                    OFFSET 0.0 0.0 18.228958129882812
                }
            }
        }
    }
    JOINT Spine
    {
        OFFSET 0.0 23.233760833740234 0.0
        CHANNELS 3 Zrotation Xrotation Yrotation
        JOINT Spine3
        {
            OFFSET 0.0 25.661170959472656 0.0
            CHANNELS 3 Zrotation Xrotation Yrotation
            JOINT Neck
            {
                OFFSET 0.0 10.486640930175781 0.0
                CHANNELS 3 Zrotation Xrotation Yrotation
                End Site
                {
                    OFFSET 0.0 4.1946563720703125 0.0
                }
            }
            JOINT LeftArm
            {
                OFFSET 14.551347732543945 0.0 0.0
                CHANNELS 3 Zrotation Xrotation Yrotation
                JOINT LeftForeArm
                {
                    OFFSET 27.39629364013672 0.0 0.0
                    CHANNELS 3 Zrotation Xrotation Yrotation
                    JOINT LeftHand
                    {
                        OFFSET 19.98226547241211 0.0 0.0
                        CHANNELS 3 Zrotation Xrotation Yrotation
                        End Site
                        {
                            OFFSET 7.992905616760254 0.0 0.0
                        }
                    }
                }
            }
            JOINT RightArm
            {
                OFFSET -14.551347732543945 0.0 0.0
                CHANNELS 3 Zrotation Xrotation Yrotation
                JOINT RightForeArm
                {
                    OFFSET -27.39629364013672 0.0 0.0
                    CHANNELS 3 Zrotation Xrotation Yrotation
                    JOINT RightHand
                    {
                        OFFSET -19.98226547241211 0.0 0.0
                        CHANNELS 3 Zrotation Xrotation Yrotation
                        End Site
                        {
                            OFFSET -7.992905616760254 0.0 0.0
                        }
                    }
                }
            }
        }
    }
}
MOTION
Frames: 6
Frame Time: 0.03333333333333333
-0.00019554709433577955 60.998291015625 -0.001048552105203271 0.4469833186239234 -10.602803414327358 -14.58115257650023 -10.766316263621585 -49.57823440482087 -4.7392613916126765 22.06359024468915 81.90162963498305 -17.86985927740674 0.0 0.0 0.0 -7.6141582786589845 -52.17723981456893 -2.3983810832339882 10.419144120025537 81.5581938290163 -8.467108816162163 -7.448466877959642e-32 -3.1805546814635168e-15 -2.683593012484842e-15 -15.283821358066493 24.91156837000761 4.5586931290241655 -2.2279210790959966e-07 -1.1591300689931311e-07 -3.7420432955135468 -21.078340150711572 -10.18001395313947 179.14810056058792 118.40704630929872 -15.168700932507575 -150.40569014907516 3.133845722829894e-06 3.8111806324566305e-06 88.16032427359256 -3.1805546814635168e-15 6.3611093629270335e-15 1.7655625192200634e-31 -115.84332501577086 -18.90145387148258 157.15017853607642 -1.0139405817825073e-06 -1.2351968159480023e-06 -93.81530043738384 0.0 0.0 0.0
-0.00020299020980019122 60.99831008911133 -0.0010608320590108633 0.38839032608267987 -10.4741493730397 -14.569904663758606 -10.708916111931291 -49.70655208952671 -4.746691484266068 22.484911955014603 82.17684652132114 -18.311049686698624 0.0 0.0 1.0933156717530838e-15 -7.394756386296226 -52.35512605209964 -2.2740820652627467 9.50910813912329 81.69374174308042 -7.675697778873429 0.0 0.0 -8.945310041616142e-16 -15.317132026192576 24.77072844243357 4.572893327006217 6.434498098493378e-09 1.7252239822085802e-07 -3.739378163772869 -21.307697835758987 -9.88110399886637 179.17928335893018 117.91742021743946 -15.04055499481095 -150.5269381417071 2.724369330161162e-06 -1.537369080441299e-06 88.39224427804845 -3.1805546814635168e-15 0.0 0.0 -115.79223147886384 -18.818910533851223 157.186928999392 -1.5255070346791861e-06 -4.044423813809542e-06 -94.13226746480004 3.1805546814635168e-15 1.7655625192200634e-31 6.3611093629270335e-15
-0.00020908737496938556 60.998313903808594 -0.0010626085568219423 0.4172254505794585 -10.483496229750006 -14.485808293294756 -10.87113504237436 -49.600267956810455 -4.867046306704858 22.114761041557202 82.03613485995258 -17.822271826243497 6.034637516865451e-34 -9.93923337957349e-17 6.957463365701443e-16 -7.337088670300493 -52.17496866224658 -2.226703177694118 8.7391578234907 81.6372875385124 -6.937594782454015 3.9756933518293955e-16 4.969616689786744e-17 -1.143011838650951e-15 -15.55700768529142 24.75664429670993 4.6760313270117235 3.522171655038068e-07 -2.7841105439998434e-07 -3.7686893023995007 -21.417716889019914 -9.59397768027794 179.36108526348556 117.84209382719497 -14.908066826728286 -150.55713440348435 4.422380941890441e-06 -3.4506009448253617e-06 88.44105289594927 0.0 6.3611093629270335e-15 0.0 -115.671550832212 -18.790557168731166 157.3731563608939 -1.414335886971982e-06 -1.7645838026834172e-06 -93.85531802187738 6.3611093629270335e-15 -6.3611093629270335e-15 3.531125038440127e-31
-0.00020227979985065758 60.998313903808594 -0.0010583485709503293 0.39751813511971346 -10.457726045598907 -14.659625492797076 -10.69621185633737 -49.84716079007043 -4.763715785130975 22.246563449590067 82.3001871683259 -18.085048435380823 0.0 0.0 2.9817700138720465e-16 -7.200759483058079 -52.16235113854678 -2.1322871131687666 8.447329499247493 81.7076312163865 -6.721665612006777 3.975693351829396e-16 4.6552917987247765e-33 1.341796506242421e-15 -15.655944246693984 24.693055439858526 4.7149430635847 -3.054099929549504e-07 4.6216727194880757e-07 -3.8268638614607973 -21.61846799835968 -9.730912287925303 178.93365971630212 117.93316505751655 -15.066340905100398 -150.47051128519612 -3.1095454785505334e-07 -6.783970904792089e-07 88.20595089628765 -3.1805546814635168e-15 0.0 0.0 -115.47347837773039 -18.69837094118791 157.27191203355733 9.074720131280683e-07 1.1297080770213899e-07 -94.17243362167969 0.0 0.0 6.3611093629270335e-15
-0.0001954659674083814 60.998321533203125 -0.0010596136562526226 0.39647490017464215 -10.48312900952456 -14.647223786273917 -10.76876944602891 -49.77943316587106 -4.82964933623978 22.33486716145303 82.31613443255684 -18.10894267836725 -7.951386703658792e-16 -8.276074308844047e-33 1.1927080055488188e-15 -7.250656157416188 -52.23625638446147 -2.189298033518607 8.159821757732333 81.68672247631694 -6.39744935681616 1.2608081954879604e-32 3.2302508483613835e-15 -4.47265502080807e-16 -15.785482574463957 24.72211071229551 4.784465799214241 -2.899838436360702e-07 1.6193923008707869e-06 -3.828651061451208 -21.833683431809753 -9.764432756238266 178.94026207161204 117.90544742434686 -15.060174341913855 -150.48660907928684 -2.0216886055651884e-06 1.1488567188550144e-06 88.43822731526178 0.0 6.3611093629270335e-15 0.0 -115.50046909211939 -18.618757132264058 157.2614246267224 1.2429188702555124e-06 2.7627229289481665e-06 -94.09833975173963 0.0 0.0 0.0
-0.00018640239431988448 60.99833679199219 -0.0010610729223117232 0.4236484936745999 -10.440844507510024 -14.542309215298104 -10.844153301557826 -49.88833883641222 -4.854619222189823 22.768291245389417 82.47149117181081 -18.540268452169872 -7.951386703658792e-16 -1.8621167194899106e-32 2.683593012484842e-15 -7.464973023480489 -52.30639174976187 -2.319109391895438 8.668358277454704 81.65025205314419 -6.805315836862784 0.0 0.0 6.957463365701445e-16 -15.939693272629057 24.76203104142355 4.835471058817822 1.8847794170506882e-07 -1.2448124496601697e-06 -3.857086926329043 -21.820515277748022 -9.736573008342074 178.85725461893495 117.76859300717041 -15.069555980140922 -150.49872585769535 -1.3533206545524302e-06 9.247973969382227e-07 89.18289586490951 3.1805546814635168e-15 0.0 0.0 -115.38474016782004 -18.567078464903794 157.2903896059107 -5.988115817547452e-07 3.6908169647567863e-06 -94.04439179595903 -3.180554681463516e-15 6.361109362927033e-15 -6.361109362927033e-15
